<svg width="320" height="61" viewBox="0 0 320 61" fill="none" xmlns="http://www.w3.org/2000/svg">
<g clip-path="url(#clip0_262_222)">
<path d="M90.0162 26.2237C87.6749 26.247 85.3667 26.7796 83.252 27.7847V11.3945C80.5539 12.4204 78.014 13.8217 75.7073 15.5571C75.2023 15.9609 74.7983 16.4767 74.5274 17.0638C74.2564 17.6508 74.126 18.2929 74.1463 18.9392V59.0042C78.0048 60.2794 82.0506 60.895 86.1138 60.8254C98.0813 60.8254 104.846 53.5408 104.846 43.1343C104.846 32.7278 100.163 26.2237 90.0162 26.2237ZM86.6341 53.5408C85.4829 53.6034 84.3312 53.4262 83.252 53.0205V34.8091C84.9046 34.1348 86.6705 33.7817 88.4553 33.7685C93.1382 33.7685 95.4797 36.8904 95.4797 42.8741C95.4797 48.8579 92.6179 53.5408 86.6341 53.5408ZM30.1788 43.3945L26.5366 45.4758C26.0162 45.7359 26.0162 45.9961 26.0162 46.5164V59.7847C26.0162 60.305 26.2764 60.5652 26.5366 60.5652H30.1788V43.3945ZM128 26.4839C126.215 26.4614 124.452 26.8764 122.865 27.6928C121.277 28.5091 119.914 29.7019 118.894 31.1668C118.64 29.7577 118.293 28.3671 117.854 27.0042L114.211 26.4839L110.569 27.0042V60.0449C111.995 60.5062 113.498 60.683 114.992 60.5652L119.675 60.0449V43.9148C119.675 37.4107 123.057 34.0286 127.48 34.0286H130.602C130.99 31.616 130.99 29.1567 130.602 26.7441L128 26.4839ZM36.9431 39.492L32.2601 42.0937H32V60.0449H37.2032C37.4792 60.0449 37.7439 59.9352 37.9391 59.7401C38.1342 59.5449 38.2439 59.2802 38.2439 59.0042V40.2725C38.296 40.1055 38.2905 39.9257 38.2282 39.7622C38.1659 39.5987 38.0504 39.4608 37.9004 39.3708C37.7503 39.2807 37.5743 39.2437 37.4007 39.2657C37.2271 39.2877 37.0659 39.3674 36.9431 39.492ZM29.6585 13.4758C25.8179 13.4463 21.9837 13.7948 18.2114 14.5164C20.2307 11.891 22.8337 9.77193 25.814 8.32692C28.7943 6.88191 32.0702 6.1507 35.3821 6.19122C40.4483 6.19122 45.3779 7.83441 49.4309 10.8741C49.9512 11.3945 50.4715 11.6546 50.9918 11.1343C51.1026 11.0366 51.1913 10.9165 51.252 10.782C51.3128 10.6474 51.3442 10.5015 51.3442 10.3538C51.3442 10.2062 51.3128 10.0602 51.252 9.92566C51.1913 9.79109 51.1026 9.67099 50.9918 9.57333C48.6641 6.73513 45.721 4.46377 42.3855 2.93126C39.05 1.39874 35.4096 0.645235 31.7398 0.727802C26.8152 0.816631 22.0294 2.37483 17.9966 5.20248C13.9637 8.03013 10.8676 11.9983 9.10566 16.5977L0.780457 19.9798C0.0866904 20.5002 -0.173472 21.0205 -3.04617e-05 21.5408C0.0525312 21.6907 0.138699 21.8265 0.251873 21.938C0.365048 22.0494 0.502224 22.1334 0.652896 22.1837C0.803567 22.2339 0.963736 22.249 1.12113 22.2277C1.27853 22.2065 1.42897 22.1495 1.56095 22.0611C3.68969 21.389 5.86307 20.8674 8.06501 20.5002C7.83844 21.7002 7.75114 22.9224 7.80485 24.1424C7.73475 28.2786 8.72632 32.3637 10.6848 36.0074C12.6434 39.6512 15.5034 42.732 18.9918 44.9554C19.5122 45.2156 20.2927 45.2156 20.5528 44.6953C20.813 44.175 20.813 43.6546 20.2927 43.1343C18.1162 41.1661 16.3864 38.7547 15.2196 36.0621C14.0529 33.3696 13.4762 30.4585 13.5284 27.5246C13.4477 24.7258 14.0741 21.952 15.3496 19.4595L22.6341 18.9392C40.3252 18.9392 55.4146 24.9229 55.4146 32.4676C55.4146 40.0124 50.4715 40.2725 44.4878 42.8741C43.187 43.3945 43.187 43.9148 43.187 44.4351C43.187 44.9554 43.9675 45.2156 44.7479 44.9554C55.1544 41.8335 62.6992 36.1099 62.6992 29.6059C62.6992 23.1018 48.1301 13.4758 29.6585 13.4758ZM185.496 18.9392V26.7441L180.813 26.2237C170.667 26.2237 163.902 32.988 163.902 43.9148C163.902 54.8416 170.406 60.8254 180.813 60.8254C185.497 60.9594 190.166 60.2546 194.602 58.7441V11.3945C191.904 12.4204 189.364 13.8217 187.057 15.5571C186.516 15.9281 186.086 16.4382 185.811 17.0335C185.537 17.6287 185.428 18.2871 185.496 18.9392ZM185.496 53.0205C184.239 53.4346 182.915 53.611 181.593 53.5408C175.61 53.5408 173.268 49.6384 173.268 43.9148C173.268 38.1912 175.61 33.5083 181.593 33.5083L185.496 34.0286V53.0205ZM278.634 53.5408C274.211 53.5408 271.089 49.8985 271.089 43.6546C271.089 37.4107 273.691 33.7685 278.634 33.7685C280.678 33.7133 282.712 34.0671 284.618 34.8091C285.174 32.5188 286.241 30.3841 287.74 28.5652C284.632 26.88 281.125 26.0707 277.593 26.2237C267.447 26.2237 261.724 33.2481 261.724 43.6546C261.724 54.0611 267.707 60.8254 277.854 60.8254C281.357 60.9977 284.847 60.2817 288 58.7441C286.471 56.7683 285.243 54.5764 284.358 52.24C282.584 53.1319 280.619 53.5783 278.634 53.5408ZM144.911 26.2237C141.585 26.1561 138.263 26.5058 135.024 27.2644C134.503 29.6646 134.503 32.1487 135.024 34.5489C137.73 33.7795 140.538 33.4285 143.35 33.5083C148.033 33.5083 150.374 35.3294 150.374 39.2319V39.7522L145.951 39.2319C138.406 39.2319 131.642 42.0937 131.642 49.6384C131.642 57.1831 137.626 60.8254 146.472 60.8254C150.693 60.7298 154.887 60.1182 158.959 59.0042V40.0124C158.959 30.9067 154.016 26.4839 144.911 26.2237ZM150.374 53.5408H146.472C142.309 53.5408 139.967 52.24 139.967 49.3782C139.967 46.5164 142.309 45.2156 146.472 45.2156H150.374V53.5408ZM304.13 26.2237C293.984 26.2237 288.26 33.2481 288.26 43.6546C288.26 54.0611 294.244 60.8254 304.13 60.8254C314.016 60.8254 320 54.0611 320 43.6546C320 33.2481 314.276 26.2237 304.13 26.2237ZM304.13 53.5408C298.927 53.5408 297.626 49.3782 297.626 43.6546C297.626 37.9311 298.927 33.5083 304.13 33.5083C309.333 33.5083 310.894 37.6709 310.894 43.6546C310.894 49.6384 309.073 53.5408 304.13 53.5408ZM215.415 26.2237C205.789 26.2237 199.805 32.7278 199.805 43.6546C199.805 54.5815 206.049 60.8254 216.976 60.8254C220.533 60.9439 224.076 60.3238 227.382 59.0042C227.898 56.6912 227.898 54.2929 227.382 51.9798C224.36 52.9827 221.2 53.5093 218.016 53.5408C212.813 53.5408 209.431 51.4595 208.65 46.2563H229.203C229.519 44.7145 229.694 43.1469 229.724 41.5733C229.724 31.6872 224 26.2237 215.415 26.2237ZM208.65 39.492C208.684 38.6377 208.885 37.7983 209.244 37.022C209.602 36.2456 210.11 35.5475 210.738 34.9676C211.366 34.3876 212.103 33.9373 212.905 33.6422C213.708 33.3472 214.56 33.2133 215.415 33.2481C219.577 33.2481 221.138 35.8498 221.138 39.492H208.65ZM250.537 40.5327L246.634 38.9717C244.553 37.9311 243.512 37.4107 243.512 35.8498C243.512 34.2888 245.333 33.2481 247.675 33.2481C250.6 33.3265 253.495 33.853 256.26 34.8091C256.781 32.5845 256.781 30.2695 256.26 28.0449C253.154 26.6685 249.767 26.0446 246.374 26.2237C239.35 26.2237 234.146 29.866 234.146 35.5896C234.146 41.3132 236.228 43.3945 242.472 45.9961L245.333 47.0367C247.935 48.0774 248.715 48.8579 248.715 50.679C248.715 52.5002 246.114 53.5408 244.033 53.5408C240.649 53.589 237.29 52.9702 234.146 51.7197C233.373 53.9973 233.373 56.4664 234.146 58.7441C237.66 60.3078 241.493 61.0209 245.333 60.8254C252.358 60.8254 258.081 57.1831 258.081 50.679C258.081 44.175 255.74 42.614 250.537 40.5327Z" fill="#869AAC"/>
</g>
<defs>
<clipPath id="clip0_262_222">
<rect width="320" height="60.0976" fill="white" transform="translate(0 0.727539)"/>
</clipPath>
</defs>
</svg>
