<svg width="280" height="54" viewBox="0 0 280 54" fill="none" xmlns="http://www.w3.org/2000/svg">
<g clip-path="url(#clip0_262_246)">
<mask id="mask0_262_246" style="mask-type:luminance" maskUnits="userSpaceOnUse" x="0" y="0" width="280" height="54">
<path d="M0 0.904297H280V53.0963H0V0.904297Z" fill="white"/>
</mask>
<g mask="url(#mask0_262_246)">
<path d="M279.916 28.9887C279.916 17.7887 271.544 10.0327 259.448 10.0327C246.54 10.0327 237.58 18.8807 237.58 31.5647C237.58 44.2487 247.044 53.0967 260.624 53.0967C267.4 53.0967 273.532 50.8847 278.096 47.0207L272.692 37.6687C269.92 39.5167 265.776 41.6727 260.596 41.6727C255.052 41.6727 251.692 39.2927 251.048 35.8207H278.908C279.552 33.6087 279.888 31.3127 279.916 28.9887ZM250.992 27.2247C251.496 23.5847 255.052 21.1487 259.084 21.1487C263.172 21.1487 265.86 23.6407 265.86 27.2247H250.992ZM207.368 26.4967L193.508 2.05273H179.816V51.9767H193.956V25.5727L205.184 44.6127H209.552L220.78 25.4047V51.9767H234.92V2.05273H221.2L207.368 26.4967Z" fill="#869AAC"/>
<path d="M74.48 10.0323C67.564 10.0323 60.564 12.8043 54.964 17.5923L61.516 26.5803C65.072 23.8083 68.964 21.8763 72.52 21.8763C76.16 21.8763 78.652 23.8643 78.652 27.0843V27.7843H69.916C59.5 27.7843 53.172 32.1243 53.172 40.1883C53.172 47.6923 58.632 53.0963 67.228 53.0963C72.408 53.0963 76.776 51.1083 79.688 47.8883V51.9483H92.792V28.0083C92.764 16.8083 85.316 10.0323 74.48 10.0323ZM78.624 36.9963C78.624 40.9163 75.936 43.3523 71.988 43.3523C69.076 43.3523 67.536 42.0083 67.536 39.7963C67.536 37.5843 68.936 36.2403 71.26 36.2403H78.624V36.9963ZM27.104 0.904297C18.592 0.904297 11.284 4.6843 6.27203 10.1723C4.73203 11.8243 4.22803 12.8043 4.22803 14.0923C4.22803 15.2403 4.73203 16.1643 5.54403 16.6683L14.728 22.2403C15.288 22.5483 15.792 22.9683 16.184 23.4443C17.64 18.7403 22.148 15.4643 27.552 15.4643C31.92 15.4643 35.924 17.5363 38.556 21.6803L50.428 14.3443C45.836 6.3083 37.296 0.904297 27.104 0.904297ZM27.552 38.5643C22.148 38.5643 17.724 35.3723 16.268 30.6403C15.988 31.0043 15.26 31.4243 14.728 31.7043L5.54403 37.2763C4.59203 37.8363 4.22803 38.7043 4.22803 39.7123C4.22803 40.9163 4.81603 42.0643 6.27203 43.7723C11.312 49.6803 18.816 53.1243 26.964 53.1243C37.296 53.1243 45.836 47.7203 50.428 39.7123L38.556 32.3763C35.924 36.4923 31.92 38.5643 27.552 38.5643Z" fill="#869AAC"/>
<path d="M13.6921 30.0807C14.9241 29.3807 15.6521 28.5127 15.6521 27.0287C15.6521 25.5448 15.0081 24.6767 13.6921 23.8927L4.45207 18.4047C3.55607 17.8168 2.88407 16.9767 2.49207 15.9688C0.812067 19.4127 -0.0279327 23.1927 6.7303e-05 27.0007C-0.0279327 30.8087 0.812067 34.5607 2.46407 37.9767C2.60407 37.4727 2.85607 36.9967 3.19207 36.5767C3.52807 36.1567 3.94807 35.8207 4.42407 35.5687L13.6921 30.0807Z" fill="#869AAC"/>
<path d="M161.168 10.0327C156.128 10.0327 152.292 12.1607 149.352 16.8087V2.05273H135.24V51.9767H149.38V28.5687C149.38 25.0687 152.74 21.8767 156.52 21.8767C159.432 21.8767 161.616 23.8647 161.616 26.5807V51.9767H175.756V26.5807C175.728 16.3047 169.68 10.0327 161.168 10.0327ZM119.112 26.5807L114.744 24.9287C112.84 24.2007 111.832 23.7247 111.832 22.7167C111.832 21.6527 112.84 21.0647 114.884 21.0647C117.88 21.0647 121.072 22.2687 123.984 24.7047L130.984 15.9967C127.204 12.2167 121.296 10.0047 114.52 10.0047C104.608 10.0047 97.412 14.7927 97.412 22.9127C97.412 29.4087 102.004 32.9647 110.516 36.1847L115.388 38.0327C117.068 38.6767 117.88 39.1807 117.88 40.1047C117.88 41.3087 116.564 42.0927 114.016 42.0927C110.012 42.0927 105.868 40.1607 102.144 36.8287L95.228 45.2567C99.68 50.2407 106.456 53.0967 114.1 53.0967C124.796 53.0967 132.3 47.5247 132.3 39.5447C132.3 33.2727 127.736 29.7727 119.112 26.5807Z" fill="#869AAC"/>
</g>
</g>
<defs>
<clipPath id="clip0_262_246">
<rect width="280" height="52.192" fill="white" transform="translate(0 0.904297)"/>
</clipPath>
</defs>
</svg>
