<svg width="400" height="62" viewBox="0 0 400 62" fill="none" xmlns="http://www.w3.org/2000/svg">
<g clip-path="url(#clip0_266_261)">
<path fill-rule="evenodd" clip-rule="evenodd" d="M5.44712 39.9112V7.95718C5.44712 3.912 5.3177 2.05538 2.15835 2.05538H0.687622V0.389355H16.3611C23.8117 0.389355 28.0234 2.38815 27.9264 8.55863C27.876 11.7674 24.3477 16.2769 19.2875 18.0851C24.0639 18.9991 29.0399 24.0396 29.0399 29.082C29.0399 38.4471 21.0063 39.9112 14.8909 39.9112H5.44712ZM10.5987 17.7222L14.3661 17.72C20.0551 17.7162 22.9758 12.3496 22.9758 9.55261C22.9758 2.15851 16.9527 1.58056 10.5987 2.06008V17.7222ZM10.5987 34.0467C10.5987 36.3608 13.6974 38.0409 15.8735 38.3332C21.332 39.0669 24.4956 34.4839 24.5101 30.8595C24.5383 23.9468 18.397 19.2951 13.3429 19.5272C12.4892 19.5662 11.1253 19.4951 10.5987 19.585V34.0467ZM73.076 16.4761C76.3757 12.536 81.3432 10.8036 84.3275 10.8036C85.8612 10.8036 87.1852 11.1965 88.2888 11.9594C89.3991 12.7274 90.2824 13.9968 90.9365 15.7631C91.3935 16.999 91.6741 18.6542 91.6741 21.1942V33.2569C91.6741 35.0298 91.8242 36.2309 92.1047 36.8709C92.3254 37.3736 92.6934 37.7783 93.1871 38.0583C93.6893 38.3431 94.7741 38.4895 96.1192 38.4895V39.6242H82.1862V38.4895H82.7748C84.0776 38.4895 85.2438 38.2913 85.7657 37.8903C86.2816 37.495 86.6468 36.9006 86.8482 36.1357C86.9282 35.8313 86.9739 34.8642 86.9739 33.2569V21.646C86.9739 19.0716 86.6369 17.1896 85.9757 16.0243C85.3153 14.859 83.9515 14.2801 82.3753 14.2801C79.9482 14.2801 75.4824 15.6148 73.076 18.2942V33.2569C73.076 35.1578 73.1895 36.326 73.4125 36.7763C73.7044 37.366 74.104 37.8 74.6104 38.0795C75.1125 38.3562 76.4754 38.4895 78.02 38.4895V39.6242H64.0239V38.4895H64.6438C66.0834 38.4895 67.0501 38.1318 67.5541 37.4069C68.0587 36.6818 68.3113 35.2948 68.3113 33.2569V19.538C68.3113 16.7453 66.4218 15.2266 63.4022 14.3441L73.076 10.5602V16.4761ZM120.746 17.7012C119.433 15.636 116.911 12.6508 113.294 12.4865C107.255 12.2116 104.965 18.7322 104.941 23.4503C104.896 32.3707 108.138 37.8795 115.899 38.1049C118.115 38.1694 121.099 37.5091 123.281 36.1288L123.355 38.625C120.235 40.5461 117.407 40.8229 113.394 40.8229C105.032 40.8229 99.6 34.3186 99.6 26.55C99.6 18.1797 105.247 10.6233 114.659 10.6233C117.523 10.6233 122.382 11.645 124.263 13.9379L120.746 17.7012ZM141.345 10.4585C149.18 10.4585 155.531 17.2507 155.531 25.6289C155.531 34.0076 149.18 40.7997 141.345 40.7997C133.51 40.7997 127.158 34.0076 127.158 25.6289C127.158 17.2507 133.51 10.4585 141.345 10.4585ZM141.345 12.2455C146.235 12.2455 150.2 18.2377 150.2 25.6289C150.2 33.0207 146.235 39.0127 141.345 39.0127C136.454 39.0127 132.489 33.0207 132.489 25.6289C132.489 18.2377 136.454 12.2455 141.345 12.2455ZM35.1934 20.1659C35.1652 13.6796 42.0892 10.5602 46.313 10.5602C48.8244 10.5602 50.8735 10.9814 52.4812 11.8215C53.6893 12.4521 54.0503 13.3986 54.6259 14.7545C54.9953 15.6256 55.1534 17.4348 55.1832 20.1555L55.3403 34.6453C55.3789 38.2113 59.6376 38.2791 60.7422 37.8824L60.7977 39.2401C58.9801 40.476 57.1169 41.0337 55.7027 40.8345C52.7565 40.4195 51.1488 37.7313 50.8646 35.2859C48.8592 37.7562 45.3521 40.8125 41.2599 40.8125C37.6681 40.8125 34.5468 38.3685 34.7012 33.4221C34.9121 26.6662 46.2562 24.6891 50.6109 23.1021V19.7963C50.6109 15.5451 50.104 12.7906 45.3883 12.7906C41.9527 12.7906 40.3474 14.2477 40.6241 18.2212L35.1934 20.1659ZM50.6109 31.2318V24.9936C47.7886 26.1053 42.3183 27.5143 40.4773 30.0976C39.7732 31.0854 38.926 33.7431 40.4146 35.9212C43.3542 40.2232 50.6109 36.1443 50.6109 31.2318Z" fill="#989898"/>
<path fill-rule="evenodd" clip-rule="evenodd" d="M202.827 20.1656C202.798 13.6793 209.722 10.5599 213.946 10.5599C216.457 10.5599 218.506 10.9811 220.113 11.8212C221.322 12.4518 221.682 13.3983 222.259 14.7542C222.628 15.6253 222.786 17.4345 222.816 20.1552L222.974 34.645C223.012 38.211 227.27 38.2788 228.375 37.8821L228.43 39.2398C226.612 40.4757 224.749 41.0334 223.335 40.8342C220.389 40.4192 218.781 37.731 218.498 35.2856C216.492 37.7559 212.984 40.8122 208.893 40.8122C205.3 40.8122 202.18 38.3682 202.334 33.4218C202.545 26.6659 213.888 24.6888 218.243 23.1018V19.7961C218.243 15.5448 217.736 12.7903 213.021 12.7903C209.584 12.7903 207.98 14.2474 208.257 18.2209L202.827 20.1656ZM218.243 31.2315V24.9933C215.422 26.105 209.951 27.514 208.11 30.0973C207.405 31.0851 206.559 33.7428 208.047 35.9209C210.987 40.2229 218.243 36.144 218.243 31.2315ZM164.529 39.9109V7.3634C164.529 1.85835 163.872 2.1116 159.875 2.1116V0.389069H174.641C188.225 0.389069 197.094 4.23702 197.094 19.9415C197.094 29.5302 191.015 39.9109 176.211 39.9109H164.529ZM169.659 34.1297C170.429 37.6128 175.153 38.1639 176.823 38.1639C185.588 38.1639 191.66 32.1412 191.66 20.2098C191.66 14.7551 189.813 10.3962 186.853 7.2575C183.68 3.89244 180.827 1.77316 169.659 1.9987V34.1297ZM232.288 46.8015C233.848 47.5352 236.342 47.5375 237.408 47.1958C242.084 45.6969 243.586 43.1347 245.428 39.1674L235.005 17.3455C233.793 14.8079 233.028 13.1357 230.524 13.0115V11.3798H242.241V13.0115H241.59C239.023 13.0115 238.978 14.2689 240.581 17.7436L247.925 33.6708L255.542 16.9982C256.483 14.9382 256.84 12.9663 253.434 12.9663V11.3798H262.189V12.9663C260.789 12.9663 259.769 12.8985 257.825 16.9977L244.735 44.6003C242.504 49.3052 237.743 53.5814 229.762 51.095L232.288 46.8015ZM322.201 11.3798H333.989V12.994H333.128C330.327 12.994 330.872 14.895 331.875 17.0523L339.847 34.2163L347 16.4608C347.857 14.3349 347.866 13.0228 344.139 13.0228V11.3798H353.839V13.0228C352.575 13.0228 351.4 12.9239 349.959 16.3186L339.577 40.7826H337.766L326.582 16.9294C325.315 14.2276 324.886 13.2218 322.201 12.9945V11.3798ZM394.794 0.310993V33.2567C394.794 35.0108 394.916 36.1798 395.172 36.745C395.43 37.314 395.824 37.7535 396.36 38.0477C396.884 38.3418 397.883 38.4892 399.333 38.4892V39.6239H385.527V38.4892C386.819 38.4892 388.054 38.3522 388.527 38.0895C389 37.8274 389.372 37.3874 389.641 36.7761C389.907 36.1694 390.04 34.99 390.04 33.2567V8.85292C390.04 6.24136 386.753 4.56919 385.022 3.77858L394.794 0.310993ZM305.964 10.4582C313.8 10.4582 320.151 17.2504 320.151 25.6286C320.151 34.0073 313.8 40.7994 305.964 40.7994C298.129 40.7994 291.777 34.0073 291.777 25.6286C291.777 17.2504 298.129 10.4582 305.964 10.4582ZM305.964 12.2452C310.855 12.2452 314.819 18.2374 314.819 25.6286C314.819 33.0204 310.855 39.0124 305.964 39.0124C301.074 39.0124 297.109 33.0204 297.109 25.6286C297.109 18.2374 301.074 12.2452 305.964 12.2452ZM357.345 20.1656C357.317 13.6793 364.241 10.5599 368.464 10.5599C370.976 10.5599 373.024 10.9811 374.633 11.8212C375.84 12.4518 376.201 13.3983 376.777 14.7542C377.147 15.6253 377.305 17.4345 377.334 20.1552L377.492 34.645C377.53 38.211 381.788 38.2788 382.893 37.8821L382.948 39.2398C381.131 40.4757 379.268 41.0334 377.854 40.8342C374.907 40.4192 373.3 37.731 373.016 35.2856C371.011 37.7559 367.502 40.8122 363.411 40.8122C359.819 40.8122 356.698 38.3682 356.852 33.4218C357.063 26.6659 368.407 24.6888 372.762 23.1018V19.7961C372.762 15.5448 372.255 12.7903 367.54 12.7903C364.104 12.7903 362.498 14.2474 362.776 18.2209L357.345 20.1656ZM372.762 31.2315V24.9933C369.94 26.105 364.469 27.514 362.628 30.0973C361.924 31.0851 361.077 33.7428 362.565 35.9209C365.505 40.2229 372.762 36.144 372.762 31.2315ZM285.286 17.7009C283.972 15.6357 281.451 12.6505 277.834 12.4862C271.795 12.2114 269.505 18.732 269.481 23.45C269.436 32.3704 272.678 37.8792 280.439 38.1046C282.655 38.1691 285.639 37.5088 287.821 36.1285L287.895 38.6247C284.775 40.5458 281.947 40.8226 277.934 40.8226C269.572 40.8226 264.14 34.3183 264.14 26.5497C264.14 18.1794 269.787 10.623 279.2 10.623C282.063 10.623 286.922 11.6447 288.802 13.9376L285.286 17.7009Z" fill="#869AAC"/>
<path fill-rule="evenodd" clip-rule="evenodd" d="M164.529 48.762H177.207V61.4404H164.529V48.762Z" fill="#989898"/>
<path fill-rule="evenodd" clip-rule="evenodd" d="M177.207 48.762H189.886V61.4404H177.207V48.762Z" fill="#869AAC"/>
</g>
<defs>
<clipPath id="clip0_266_261">
<rect width="400" height="61.4458" fill="white" transform="translate(0 0.0537109)"/>
</clipPath>
</defs>
</svg>
