<svg width="240" height="62" viewBox="0 0 240 62" fill="none" xmlns="http://www.w3.org/2000/svg">
<g clip-path="url(#clip0_262_224)">
<path d="M0 58.5183H25.583L25.7191 57.8099L0.49032 52.5789L0.980592 49.7728L26.2094 55.2217L26.4274 54.2408L2.58816 43.8877L3.62342 41.027L27.5173 51.0802L28.0077 50.3719L6.8387 34.6514L9.01819 31.2186L30.0513 46.9386L30.6779 46.0941L14.1131 25.061L18.1726 21.7643L34.6011 41.8168L35.3095 41.1902L25.7465 16.8604L31.5497 14.4084L40.5679 38.2476L41.2763 38.0297V11.6023H50.5393V60.5335H0.000144L0 58.5183ZM147.23 49.8543H157.229V60.6164H148.92C140.174 60.6164 134.807 57.5922 134.807 46.5034V22.4732H128.867C127.832 22.4732 127.287 21.2198 127.995 20.457L145.187 0.949777C145.922 0.159697 147.257 0.677334 147.257 1.76712V11.7113H157.174V22.4729H147.257V49.854L147.23 49.8543ZM111.594 10.9215C105.627 10.9215 101.16 14.3544 98.9798 19.7487H98.571V11.6842H86.7193V60.6154H99.1705V22.6906H107.48C111.104 22.6906 112.439 23.4535 112.439 27.3221V60.6154H124.89V24.8972C124.863 15.062 120.149 10.9205 111.594 10.9205L111.594 10.9215ZM65.196 60.6159H77.6467V11.6847H65.196V60.6159ZM228.094 20.3477H227.577V11.6837H215.207V60.6149H228.394V23.3712H240.001V10.9205H238.392C232.289 10.9205 229.592 13.6177 228.094 20.3472L228.094 20.3477ZM209.432 34.8965V38.6017H172.106C172.787 45.8761 177.336 50.6987 184.366 50.6987C190.659 50.6987 195.209 47.3475 196.135 43.2063H209.404C206.625 53.5321 197.145 61.4334 184.175 61.4334C169.054 61.4334 158.784 50.6718 158.784 36.5588C158.784 22.4459 168.701 10.9215 184.502 10.9215C199.432 10.9215 209.433 21.1931 209.433 34.8971L209.432 34.8965ZM172.487 29.5839H196.572C194.691 24.6797 190.715 21.1652 184.557 21.1652C179.162 21.1924 174.422 24.0258 172.487 29.5839Z" fill="#869AAC"/>
</g>
<defs>
<clipPath id="clip0_262_224">
<rect width="240" height="60.96" fill="white" transform="translate(0 0.519531)"/>
</clipPath>
</defs>
</svg>
