<svg width="140" height="140" viewBox="0 0 140 140" fill="none" xmlns="http://www.w3.org/2000/svg">
<path d="M61.2292 2.96081C57.3661 3.05265 54.5322 3.18845 49.3368 3.50877C46.9339 3.65213 44.3108 3.86325 42.4637 4.04805C42 4.09845 41.0301 4.19141 40.3133 4.25917C37.3024 4.55457 32.8322 5.11877 30.952 5.43937C30.555 5.50713 29.9731 5.60009 29.645 5.65049C29.3244 5.69305 28.7504 5.79357 28.3794 5.86161C28.0087 5.92937 27.3843 6.04753 26.9883 6.11417C25.5959 6.35049 23.2268 6.83153 21.8859 7.15213C21.5141 7.24509 20.8479 7.40469 20.4095 7.50661C19.9707 7.60713 19.5751 7.70009 19.5247 7.70877C17.0525 8.29845 14.5983 9.48845 12.7095 11.0315C10.8707 12.5245 9.22681 14.9364 8.39997 17.3315C8.26557 17.7025 8.12977 18.0819 8.08833 18.1749C7.94497 18.4955 7.32057 21.1936 6.87313 23.4042C6.80649 23.7749 6.68833 24.3229 6.62057 24.6269C6.55253 24.9299 6.46097 25.4613 6.40161 25.8071C6.35037 26.1527 6.28345 26.5749 6.24089 26.7345C6.11405 27.2161 5.59997 30.5047 5.27069 32.8914C4.95037 35.2025 4.73925 36.8814 4.55445 38.5844C4.46149 39.4188 4.36853 40.2369 4.35201 40.3977C4.32681 40.5573 4.25037 41.3757 4.17477 42.2112C4.10701 43.0456 4.00649 44.0662 3.95497 44.4885C3.77773 46.0394 3.33897 52.7955 3.12057 57.5608C2.95201 61.0936 2.84253 68.6592 2.90161 72.7836C2.96069 77.9277 3.08641 82.5248 3.20457 84.1269C3.24741 84.7757 3.33141 86.1429 3.38181 87.1633C3.43221 88.1836 3.49997 89.4906 3.54253 90.0725C3.73629 92.9906 3.88833 94.9047 3.96365 95.5117C4.00649 95.8836 4.10701 96.8703 4.17477 97.696C4.24253 98.5229 4.34333 99.5096 4.38589 99.889C4.43629 100.269 4.52925 101.087 4.59589 101.711C4.80701 103.71 4.96773 105.017 5.10241 105.886C5.17017 106.35 5.28833 107.143 5.35497 107.657C5.59997 109.512 5.88641 111.316 6.19833 112.97C6.26609 113.341 6.37557 113.966 6.45201 114.362C6.59537 115.205 6.92437 116.884 7.16069 117.946C7.96989 121.666 8.32437 122.778 9.27721 124.609C9.53845 125.114 9.87557 125.705 10.0276 125.916C10.1707 126.127 10.3818 126.43 10.4913 126.591C10.9723 127.307 12.3474 128.707 13.1065 129.248C13.2322 129.339 13.4772 129.516 13.6368 129.643C13.8065 129.778 13.9661 129.88 14.0087 129.88C14.0425 129.88 14.1268 129.939 14.1935 130.007C14.5227 130.327 16.8425 131.432 17.8368 131.727C18.0227 131.786 18.2504 131.861 18.3433 131.904C18.5631 132.005 19.8021 132.317 21.2954 132.655C21.945 132.807 22.6111 132.966 22.771 133.009C23.159 133.11 25.6046 133.598 27.452 133.936C28.514 134.13 30.5813 134.459 31.8794 134.645C32.3685 134.712 32.9929 134.805 33.271 134.855C34.2913 135.032 38.5087 135.522 41.1566 135.775C42.1095 135.868 43.2818 135.977 43.7707 136.027C44.5637 136.112 45.3731 136.18 49.2525 136.458C49.8344 136.5 51.1591 136.576 52.2046 136.627C53.2504 136.677 54.7094 136.753 55.452 136.796C61.4566 137.141 78.6276 137.141 84.5479 136.796C85.2905 136.745 86.7496 136.677 87.7954 136.627C89.5913 136.543 90.2496 136.5 93.0661 136.289C96.6753 136.011 101.981 135.496 103.777 135.243C104.291 135.168 105.177 135.05 105.759 134.973C107.909 134.695 110.861 134.248 112.548 133.936C114.395 133.598 116.841 133.11 117.229 133.009C117.389 132.966 118.055 132.807 118.705 132.655C120.164 132.325 121.429 132.005 121.657 131.904C121.937 131.803 122.218 131.705 122.5 131.609C123.191 131.381 125.486 130.293 125.679 130.107C125.738 130.048 125.907 129.922 126.05 129.837C126.709 129.425 127.012 129.188 127.611 128.648C128.286 128.032 129.222 127.021 129.45 126.675C129.525 126.557 129.728 126.27 129.896 126.043C130.073 125.807 130.216 125.595 130.216 125.562C130.216 125.527 130.352 125.291 130.512 125.039C130.673 124.786 130.866 124.414 130.943 124.212C131.027 124.018 131.111 123.807 131.145 123.766C131.305 123.555 131.895 121.876 132.148 120.923C132.545 119.447 133.286 115.964 133.557 114.319C133.624 113.898 133.7 113.502 133.725 113.434C133.802 113.248 134.266 110.355 134.686 107.404C134.779 106.755 134.872 106.105 134.898 105.97C134.966 105.582 135.269 102.993 135.404 101.627C135.471 100.952 135.564 100.176 135.614 99.8977C135.666 99.6188 135.757 98.7088 135.825 97.8733C135.893 97.0389 135.986 96.0096 136.028 95.596C136.078 95.1749 136.154 94.2137 136.205 93.4456C136.255 92.6779 136.331 91.734 136.373 91.3372C136.424 90.941 136.516 89.4819 136.584 88.0906C136.661 86.6985 136.745 84.9865 136.795 84.2955C137.175 78.1638 137.175 62.0725 136.795 55.7475C136.753 55.0299 136.677 53.6223 136.627 52.6269C136.576 51.6315 136.5 50.3158 136.457 49.7166C136.407 49.1096 136.298 47.6166 136.205 46.386C136.112 45.1546 136.019 43.9985 135.993 43.8137C135.968 43.6275 135.893 42.8096 135.825 42.0001C135.757 41.1909 135.682 40.4315 135.657 40.3137C135.631 40.1955 135.538 39.4188 135.445 38.5844C135.227 36.5684 134.957 34.3427 134.898 34.0814C134.872 33.9633 134.779 33.2885 134.686 32.596C134.273 29.4427 133.506 25.0481 132.848 22.0546C132.755 21.6323 132.604 20.9497 132.511 20.5364C132.275 19.4567 131.996 18.3687 131.904 18.1749C131.861 18.0819 131.786 17.8546 131.727 17.6687C131.541 17.0451 130.605 14.9616 130.369 14.6323C130.334 14.5819 130.066 14.186 129.778 13.7475C129.179 12.8451 127.645 11.2427 126.725 10.5679C124.904 9.22693 122.879 8.31581 120.266 7.67489C119.815 7.56477 119.365 7.45212 118.916 7.33693C118.604 7.24509 117.979 7.10957 116.638 6.83153C116.259 6.75186 115.879 6.67019 115.5 6.58653C113.872 6.19061 108.576 5.32989 105.127 4.89141C104.434 4.80713 103.752 4.71417 103.609 4.68141C103.355 4.62989 102.132 4.50417 99.645 4.25917C98.9525 4.19141 98 4.09061 97.5363 4.04805C97.0726 3.99765 96.2371 3.92205 95.6813 3.87081C95.1244 3.82937 94.2135 3.75265 93.6569 3.71121C91.7677 3.55049 86.5222 3.24753 83.6206 3.12041C78.0116 2.87569 67.6553 2.80009 61.2292 2.96081ZM24.0702 59.9475C24.1206 59.989 24.3656 60.0657 24.6094 60.1245C25.0656 60.234 25.7065 60.5294 26.1864 60.8497C26.5661 61.1025 27.4607 62.0638 27.6368 62.4017C27.7222 62.5703 27.8141 62.7223 27.8393 62.7475C27.8656 62.7727 27.9409 62.941 28.0086 63.1269C28.0677 63.3117 28.1431 63.5066 28.1859 63.5481C28.2951 63.7088 28.4222 64.7117 28.4222 65.4546C28.4222 66.1798 28.3116 67.0315 28.1685 67.3435C27.7135 68.389 27.4937 68.7345 26.9206 69.3427C26.3888 69.8906 26.1702 70.0592 25.445 70.4137C24.8542 70.7088 24.4322 70.8608 24.0954 70.8936C23.8252 70.9275 23.5889 70.9865 23.5637 71.0207C23.5049 71.1223 21.6748 71.1223 21.6748 71.0207C21.6748 70.9865 21.4637 70.9275 21.1935 70.8936C20.9322 70.8608 20.6041 70.7844 20.4607 70.7253C20.2778 70.643 20.0922 70.5671 19.9041 70.4977C19.7433 70.4389 19.5913 70.3708 19.5661 70.3456C19.5409 70.312 19.4141 70.2364 19.2707 70.1687C18.7818 69.9245 17.7699 68.8023 17.4748 68.1865C17.3141 67.8575 17.1631 67.5369 17.1206 67.4703C16.8339 66.8963 16.7835 64.2819 17.0525 63.6749C17.1293 63.5142 17.2385 63.2451 17.2975 63.0841C17.3566 62.9245 17.4244 62.7725 17.4496 62.7475C17.4748 62.7223 17.5756 62.5527 17.6685 62.3679C17.8293 62.0551 18.8322 60.9757 18.9756 60.9757C19.0092 60.9757 19.0859 60.9166 19.145 60.8413C19.3046 60.6638 20.1227 60.2679 20.6206 60.1413C20.8566 60.0819 21.1181 59.9977 21.2111 59.9551C21.3041 59.9137 21.5314 59.8711 21.7165 59.8459C22.2141 59.7955 23.9607 59.8711 24.0702 59.9475ZM115.964 65.8253V70.0841H99.6024V64.3836L100.514 64.2394C102.529 63.9277 103.786 63.7166 103.861 63.6662C103.912 63.6323 104.325 63.5654 104.789 63.5066C105.253 63.4475 105.675 63.3708 105.716 63.3369C105.768 63.3042 106.164 63.2277 106.602 63.1687C107.041 63.1183 107.614 63.0166 107.868 62.9497C108.121 62.8909 108.652 62.7977 109.048 62.7475C109.445 62.696 109.841 62.6207 109.934 62.5865C110.027 62.5451 110.448 62.4687 110.861 62.4096C111.283 62.3592 111.755 62.2836 111.916 62.2323C112.075 62.1906 112.683 62.0727 113.265 61.9795C113.847 61.8865 114.606 61.7611 114.952 61.7017C115.298 61.634 115.669 61.5836 115.778 61.5749L115.964 61.5662V65.8253ZM46.1322 69.5865V74.6386H54.5658V82.1451H46.1244L46.1574 89.9633C46.1835 98.3885 46.1658 97.9749 46.6222 99.0117C46.9677 99.8137 47.9455 100.632 48.7889 100.834C48.9322 100.868 49.0929 100.935 49.1607 100.986C49.3203 101.112 52.7363 101.112 52.8883 100.977C52.955 100.927 53.259 100.859 53.5794 100.825L54.145 100.766V108.163L53.9165 108.264C53.7065 108.357 52.7363 108.509 51.404 108.669C49.5065 108.888 46.0479 108.914 45.8455 108.702C45.7951 108.661 45.6607 108.627 45.5339 108.627C45.2046 108.627 43.8385 108.373 43.7368 108.298C43.6864 108.264 43.4591 108.179 43.2227 108.129C42.9954 108.07 42.7677 107.994 42.7165 107.961C42.6748 107.918 42.4813 107.843 42.2954 107.784C42.1094 107.725 41.9409 107.648 41.9157 107.623C41.8905 107.598 41.7385 107.505 41.5777 107.412C40.8777 107.041 40.6677 106.907 40.2959 106.594C40.0772 106.417 39.8748 106.266 39.8322 106.266C39.7479 106.257 39.107 105.557 38.6016 104.916C38.2135 104.418 37.6392 103.466 37.4455 102.976C37.3777 102.816 37.3024 102.664 37.2772 102.639C37.2433 102.613 37.159 102.352 37.0748 102.048C36.9983 101.745 36.8975 101.424 36.855 101.332C36.8135 101.239 36.7116 100.859 36.645 100.488C36.5735 100.136 36.4973 99.7844 36.4165 99.434C36.3574 99.1814 36.3157 96.2117 36.2905 90.5955L36.2569 82.1451H31.3731V74.6386H36.2656V66.1369L36.8384 66.0781C37.1504 66.0451 37.4455 65.986 37.488 65.9521C37.5384 65.9183 37.952 65.8429 38.4157 65.7836C38.8794 65.7248 39.3016 65.6394 39.3433 65.6066C39.3937 65.5727 39.9252 65.4795 40.5244 65.4042C41.1314 65.3188 41.6631 65.2269 41.7046 65.1931C41.755 65.1592 42.0339 65.1001 42.3368 65.0749C42.7332 65.0274 43.1273 64.9628 43.5181 64.8814C44.4206 64.6955 45.9975 64.4502 46.0731 64.4931C46.107 64.5096 46.1322 66.8042 46.1322 69.5865ZM74.0905 73.8369C75.2707 73.9047 76.604 74.0567 76.7046 74.1323C76.755 74.1659 76.9574 74.2253 77.1685 74.2505C77.6496 74.3269 78.8222 74.6725 79.5298 74.9589C80.1206 75.1955 81.4363 75.8527 81.6384 76.0223C81.7065 76.0727 81.8574 76.1733 81.9756 76.2245C82.0934 76.2836 82.4656 76.5779 82.7934 76.8657C83.1227 77.1608 83.4268 77.4137 83.4682 77.4299C83.5954 77.489 85.0959 79.3112 85.0959 79.4117C85.0959 79.4369 85.1726 79.5727 85.2656 79.6985C85.4425 79.9521 86.1929 81.4112 86.1929 81.5042C86.1929 81.5369 86.2607 81.7229 86.3525 81.9166C86.4368 82.1112 86.5384 82.4066 86.5726 82.5662C86.6062 82.7269 86.6656 82.8955 86.6983 82.9456C86.7319 82.9885 86.8086 83.2575 86.8677 83.5364C86.9181 83.8142 86.9859 84.102 87.0111 84.1687C87.045 84.2364 87.1203 84.5985 87.1883 84.9703C87.2891 85.5269 87.314 87.6269 87.3479 96.9207L87.3818 108.205H78.181L78.1726 107.21C78.1636 106.67 78.1384 105.886 78.1046 105.472L78.0542 104.714L77.8094 105.05C77.4222 105.566 76.1479 106.779 75.6425 107.117C74.5368 107.843 74.2425 108.019 73.9385 108.121C73.7525 108.171 73.5087 108.273 73.3905 108.339C73.2636 108.398 72.952 108.5 72.6983 108.55C72.4455 108.609 72.1929 108.686 72.1504 108.719C71.7206 109.039 66.407 109.032 65.9934 108.711C65.952 108.677 65.6479 108.602 65.3186 108.543C64.9983 108.484 64.6186 108.391 64.4756 108.323C64.3412 108.264 63.9777 108.112 63.6834 107.994C63.3443 107.846 63.0122 107.683 62.6883 107.505C62.4642 107.366 62.2362 107.234 62.0046 107.109C61.6504 106.914 61.5322 106.805 60.571 105.843C59.5842 104.857 59.4574 104.722 59.4574 104.629C59.4574 104.595 59.3479 104.41 59.2222 104.216C59.0864 104.022 58.8929 103.668 58.791 103.439C58.6905 103.204 58.555 102.925 58.4959 102.807C58.4292 102.689 58.3363 102.386 58.2772 102.132C58.2181 101.88 58.1428 101.627 58.1087 101.584C58.0157 101.466 57.855 100.268 57.855 99.7456C57.855 99.502 57.8135 99.2567 57.7631 99.2066C57.6615 99.1047 57.6864 98.7679 57.9479 96.7345C57.9983 96.3386 58.0748 95.9757 58.1087 95.934C58.1425 95.8836 58.2178 95.6638 58.2682 95.4364C58.3777 94.9977 58.6065 94.4245 58.8425 93.9936C58.9181 93.8505 59.0189 93.6567 59.0702 93.5551C59.1206 93.4459 59.1883 93.3616 59.2298 93.3616C59.2636 93.3616 59.2888 93.3112 59.2888 93.2521C59.2888 93.1592 60.2165 91.9529 60.3772 91.8435C60.4108 91.8183 60.4702 91.7343 60.4954 91.6497C60.529 91.5567 60.6298 91.4727 60.7227 91.4475C60.8157 91.4223 60.8913 91.3708 60.8913 91.3369C60.8913 91.2529 62.3087 90.1394 62.7888 89.8613C63.1344 89.6505 63.9111 89.2546 65.0409 88.7142C65.2016 88.6302 66.7777 88.1245 67.4702 87.9302C67.7227 87.8546 68.2206 87.7527 68.5661 87.7025C68.9116 87.6435 69.2409 87.5757 69.2834 87.5429C69.3338 87.5088 69.8392 87.4323 70.4222 87.3819C71.004 87.3315 71.7206 87.2475 72.0244 87.2047C73.2222 87.0277 77.4298 87.0616 77.8772 87.2475C78.0292 87.3142 78.0368 87.2811 77.978 86.5638C77.945 86.1505 77.8859 85.796 77.852 85.7708C77.8094 85.7456 77.759 85.586 77.7252 85.4166C77.6661 85.1047 77.3455 84.4223 77.0425 83.9575C76.8479 83.6633 76.0298 82.8188 75.9368 82.8188C75.904 82.8188 75.7607 82.7348 75.6165 82.6253C75.2455 82.3551 74.6474 82.086 74.2842 82.0183C74.107 81.9844 73.9636 81.9253 73.9636 81.8914C73.9636 81.5207 68.5157 81.4616 66.8797 81.8245C66.6685 81.8662 66.1796 81.9589 65.7834 82.0269C65.3864 82.0936 64.9905 82.1865 64.8975 82.2294C64.8046 82.2708 64.5016 82.3475 64.2227 82.3977C63.945 82.4481 63.6409 82.5245 63.5479 82.5662C63.455 82.6088 63.1181 82.7017 62.7975 82.7773C62.4772 82.8529 62.1731 82.9369 62.1227 82.9795C62.0723 83.0137 61.845 83.0977 61.6087 83.1567C61.3813 83.2158 61.145 83.3001 61.1024 83.334C61.052 83.3679 60.8244 83.4432 60.5959 83.5025C60.3607 83.5529 60.0314 83.6708 59.8631 83.7551C59.6859 83.8481 59.5252 83.9158 59.5 83.9158C59.4748 83.9158 59.4574 82.1527 59.4574 80.0025C59.4574 76.9575 59.4835 76.0725 59.5677 76.0047C59.6268 75.9543 59.8631 75.8703 60.0905 75.8112C60.3268 75.7608 60.5545 75.6844 60.5959 75.6505C60.6474 75.6166 60.9252 75.5161 61.2292 75.4394C61.5322 75.3551 61.8186 75.263 61.8615 75.2294C61.9119 75.1865 62.1731 75.1188 62.4433 75.0608C62.7222 75.002 63.0089 74.9253 63.0756 74.8836C63.152 74.85 63.4975 74.7567 63.8433 74.6814C64.112 74.629 64.3793 74.5699 64.645 74.5042C64.7368 74.4779 65.2094 74.4025 65.6983 74.3345C66.1883 74.2679 66.7024 74.1749 66.8368 74.1323C67.3268 73.9811 71.7455 73.7025 72.7409 73.7616C73.0186 73.7779 73.6268 73.812 74.0905 73.8372V73.8369ZM27.5777 91.4223V108.205H17.7111V74.6386H27.5777V91.4223ZM102.132 85.096C102.132 95.0819 102.175 97.0137 102.377 97.2836C102.419 97.3253 102.47 97.4936 102.504 97.6546C102.622 98.2865 103.17 99.2066 103.793 99.8302C104.123 100.168 104.493 100.463 104.612 100.496C104.738 100.522 104.831 100.573 104.831 100.607C104.831 100.639 105.127 100.758 105.489 100.875C106.029 101.045 106.316 101.078 107.159 101.078C107.75 101.078 108.264 101.036 108.382 100.986C108.491 100.927 108.753 100.843 108.964 100.784C109.175 100.725 109.554 100.548 109.807 100.378C110.279 100.075 111.157 99.2657 111.157 99.1299C111.157 99.0885 111.275 98.9025 111.409 98.7253C111.553 98.5394 111.663 98.3546 111.663 98.3042C111.663 98.2527 111.739 98.0757 111.823 97.9071C111.916 97.7386 112.016 97.4521 112.05 97.2749C112.076 97.089 112.134 96.9042 112.177 96.8616C112.388 96.5914 112.422 94.8885 112.422 84.9952V74.6386H122.289V108.205H117.617C113.966 108.205 112.919 108.18 112.869 108.095C112.835 108.045 112.793 107.243 112.776 106.325C112.759 105.414 112.717 104.663 112.684 104.663C112.65 104.663 112.548 104.764 112.448 104.891C111.975 105.532 111.232 106.257 110.069 107.218C109.9 107.353 109.555 107.539 108.796 107.91C108.45 108.078 108.07 108.272 107.952 108.332C107.834 108.391 107.514 108.484 107.235 108.543C106.957 108.602 106.712 108.677 106.687 108.711C106.603 108.837 105.11 108.964 103.634 108.964C102.184 108.964 101.003 108.863 100.657 108.719C100.564 108.677 100.244 108.576 99.9395 108.5C99.6366 108.424 99.3577 108.323 99.3073 108.289C99.2658 108.255 99.0634 108.171 98.8688 108.112C98.6664 108.061 98.5068 107.986 98.5068 107.952C98.5068 107.918 98.3547 107.843 98.1688 107.784C97.984 107.725 97.8317 107.648 97.8317 107.614C97.8317 107.581 97.7387 107.513 97.6295 107.463C96.9043 107.134 95.2593 105.591 94.568 104.595C94.1458 103.988 93.4962 102.773 93.3618 102.327C93.3114 102.15 93.2097 101.888 93.1506 101.753C93.0916 101.61 92.991 101.307 92.9395 101.078C92.8891 100.843 92.8135 100.598 92.771 100.514C92.7295 100.437 92.6528 100.041 92.6027 99.6277C92.5523 99.2229 92.4593 98.8096 92.4089 98.7166C92.3325 98.5906 92.2986 95.5795 92.2821 86.589L92.2569 74.6386H102.132L102.132 85.096Z" fill="#869AAC"/>
<path d="M72.9935 93.2863C72.5813 93.328 72.1591 93.3955 72.0661 93.4375C71.9731 93.4887 71.6702 93.5641 71.3913 93.6231C71.1222 93.6735 70.7591 93.7752 70.5905 93.8508C69.3249 94.3987 68.7095 94.7619 68.2883 95.2004C67.8835 95.6226 67.4777 96.4069 67.4111 96.8958C67.3935 97.0641 67.3344 97.2839 67.2843 97.376C67.1913 97.5706 67.2252 98.1689 67.3772 98.9529C67.5455 99.805 68.2206 100.843 68.8187 101.155C69.8818 101.703 70.0843 101.787 70.6751 101.88C71.7368 102.04 73.7615 101.948 74.2 101.712C74.2756 101.669 74.5883 101.526 74.8913 101.391C75.1954 101.248 75.5913 101.019 75.7772 100.876C75.9631 100.733 76.1731 100.564 76.2496 100.505C76.7298 100.143 77.616 98.6752 77.7339 98.0681C77.7591 97.9161 77.8268 97.7389 77.8772 97.6711C77.936 97.5955 77.978 96.8191 77.9954 95.4277L78.029 93.3025L77.5731 93.2524C76.9571 93.176 73.9219 93.202 72.9935 93.2863Z" fill="#869AAC"/>
</svg>
