<svg width="320" height="56" viewBox="0 0 320 56" fill="none" xmlns="http://www.w3.org/2000/svg">
<path d="M42.3174 25.7831C42.183 23.768 41.6457 21.7529 40.5709 20.0065L31.4358 4.01991C30.7641 2.81084 30.2267 1.46743 29.958 0.124023L29.555 0.795728C27.2712 4.69161 27.2712 9.66223 29.555 13.5581L36.9437 26.3205C39.2275 30.2164 39.2275 35.187 36.9437 39.0829L36.5407 39.7546C36.272 38.4112 35.7347 37.0678 35.063 35.8587L28.3459 24.171L24.047 16.648C23.3753 15.4389 22.838 14.0955 22.5693 12.7521L22.1662 13.4238C19.8825 17.3197 19.8825 22.1559 22.1662 26.1862L29.555 38.9485C31.8388 42.8444 31.8388 47.815 29.555 51.7109L29.152 52.3826C28.8833 51.0392 28.3459 49.6958 27.6742 48.4867L18.4047 32.5002C17.1956 30.3507 16.6583 27.9326 16.6583 25.5145C6.85138 28.0669 0 33.5749 0 39.8889C0 48.7554 13.1654 55.8755 29.4207 55.8755C45.6759 55.8755 58.8413 48.7554 58.8413 39.8889C58.9757 33.8436 52.2586 28.3356 42.3174 25.7831ZM70.1259 53.0543C70.2603 50.7705 70.529 49.2928 71.2007 47.412C74.2905 48.8898 78.3207 49.5615 81.2762 49.5615C86.3812 49.5615 89.3367 47.9494 89.3367 44.5909C89.3367 41.3667 87.1872 39.8889 82.0823 37.6051L79.2611 36.5304C74.0218 34.2466 70.529 31.2911 70.529 25.5145C70.529 19.2004 74.9622 15.1702 83.8287 15.1702C87.4559 15.1702 90.8144 15.7076 93.9043 16.7823C93.7699 18.9317 93.3669 20.6782 92.8296 22.2903C89.8741 21.2155 86.2469 20.6782 83.6944 20.6782C78.8581 20.6782 76.7086 22.559 76.7086 25.5145C76.7086 28.3356 78.8581 30.082 82.754 31.6941L85.7095 32.9032C92.6952 35.8587 95.6507 39.0829 95.6507 44.4565C95.6507 50.7705 90.8144 55.2038 81.4106 55.2038C76.9773 55.2038 73.2158 54.5321 70.1259 53.0543ZM125.34 26.5892V54.2634H119.698L119.429 50.9049C117.817 53.323 115.533 54.9351 111.637 54.9351C104.383 54.9351 99.4123 49.5615 99.4123 40.2919C99.4123 30.6194 104.652 24.9771 114.861 24.9771C118.892 25.1114 122.25 25.5145 125.34 26.5892ZM119.295 47.9494V30.6194C118.086 30.3507 116.608 30.3507 114.861 30.3507C108.547 30.3507 105.592 34.2466 105.592 40.4263C105.592 46.0686 107.876 50.0988 113.249 50.0988C115.802 49.9645 117.683 49.1584 119.295 47.9494ZM156.507 35.7244V54.2634H150.462V36.7991C150.462 32.3658 148.984 30.3507 142.939 30.3507C141.461 30.3507 139.849 30.4851 138.102 30.7537V54.2634H132.057V26.5892C135.953 25.6488 140.252 24.9771 143.073 24.9771C153.283 25.1114 156.507 29.0073 156.507 35.7244ZM173.434 49.8302C175.181 49.8302 176.927 49.5615 178.136 49.0241C178.002 50.6362 177.733 52.517 177.464 54.1291C175.852 54.8008 173.971 55.0694 172.359 55.0694C166.448 55.0694 162.687 52.3826 162.687 45.6656V16.5136C164.568 15.8419 166.851 15.5732 168.732 15.5732V26.0518H178.405C178.27 27.9326 178.136 29.679 177.867 31.2911H168.732V44.8595C168.732 48.3524 170.479 49.8302 173.434 49.8302ZM206.079 26.5892V54.2634H200.437L200.168 50.9049C198.556 53.323 196.272 54.9351 192.376 54.9351C185.122 54.9351 180.151 49.5615 180.151 40.2919C180.151 30.6194 185.39 24.9771 195.6 24.9771C199.631 25.1114 202.855 25.5145 206.079 26.5892ZM199.899 47.9494V30.6194C198.69 30.3507 197.212 30.3507 195.466 30.3507C189.152 30.3507 186.196 34.2466 186.196 40.4263C186.196 46.0686 188.48 50.0988 193.854 50.0988C196.406 49.9645 198.422 49.1584 199.899 47.9494ZM237.246 35.7244V54.2634H231.066V36.7991C231.066 32.3658 229.589 30.3507 223.543 30.3507C222.065 30.3507 220.453 30.4851 218.707 30.7537V54.2634H212.662V26.5892C216.558 25.6488 220.856 24.9771 223.678 24.9771C233.887 25.1114 237.246 29.0073 237.246 35.7244ZM268.01 15.5732V54.2634H262.368L262.099 50.7705C260.487 53.323 258.203 54.9351 254.173 54.9351C246.919 54.9351 241.948 49.5615 241.948 40.2919C241.948 30.6194 247.187 24.9771 257.397 24.9771C259.009 24.9771 260.487 25.1114 261.965 25.3801V16.2449C263.846 15.7076 265.995 15.5732 268.01 15.5732ZM261.965 47.9494V30.8881C260.353 30.6194 258.741 30.3507 257.128 30.3507C251.083 30.3507 248.262 34.1123 248.262 40.4263C248.262 46.0686 250.546 50.0988 255.919 50.0988C258.338 49.9645 260.353 49.1584 261.965 47.9494ZM298.64 42.4414H279.16C279.966 47.412 282.788 49.6958 288.296 49.6958C291.654 49.6958 295.013 49.0241 297.968 47.5464C297.699 49.1584 297.431 51.3079 297.028 53.0543C294.207 54.2634 291.385 54.8008 288.027 54.8008C277.817 54.8008 272.981 49.1584 272.981 39.7546C272.981 31.5598 276.742 24.9771 286.415 24.9771C295.147 24.9771 298.908 30.6194 298.908 37.6051C298.908 39.4859 298.908 40.8293 298.64 42.4414ZM279.16 37.3365H292.863C292.863 32.7689 290.445 30.082 286.28 30.082C281.847 30.2164 279.563 32.6345 279.16 37.3365ZM320 25.3801C320 27.2609 319.731 29.4103 319.463 30.6194C317.985 30.4851 316.641 30.3507 314.895 30.3507C313.417 30.3507 311.94 30.4851 310.462 30.6194V54.2634H304.416V26.5892C306.969 25.6488 311.402 24.9771 314.761 24.9771C316.507 25.1114 318.657 25.1114 320 25.3801Z" fill="#869AAC"/>
</svg>
