<svg width="240" height="82" viewBox="0 0 240 82" fill="none" xmlns="http://www.w3.org/2000/svg">
<path d="M80.156 2.679C66.4662 13.1224 55.0413 21.8382 42.1456 31.6764C29.7269 22.4029 17.3224 13.1405 1.8875 1.61523C1.8875 24.7963 1.81521 43.9199 1.93479 63.043C1.96773 68.3085 2.57279 73.5701 2.98739 79.9371C29.1075 79.9371 54.0775 79.9371 80.156 79.9371C80.156 54.5882 80.156 30.3643 80.156 2.679Z" fill="#869AAC"/>
<path d="M127.443 60.3498C124.833 54.7128 122.311 48.8151 119.875 42.6562C117.474 36.4973 115.23 30.3386 113.142 24.1797H120.397C121.232 26.6153 122.084 29.1034 122.954 31.6434C123.824 34.1835 124.694 36.6888 125.564 39.1592C126.434 41.5948 127.304 43.961 128.174 46.2576C129.043 48.5541 129.896 50.6591 130.731 52.5728C131.531 50.6591 132.367 48.5713 133.236 46.3098C134.106 44.0132 134.976 41.6298 135.846 39.1592C136.751 36.6888 137.638 34.1835 138.508 31.6434C139.378 29.1034 140.213 26.6153 141.013 24.1797H148.059C145.937 30.3386 143.675 36.4973 141.274 42.6562C138.873 48.8151 136.368 54.7128 133.758 60.3498H127.443ZM175.021 46.6751C175.021 48.8323 174.708 50.7985 174.082 52.5728C173.455 54.3474 172.568 55.8611 171.42 57.1137C170.272 58.3664 168.88 59.3406 167.244 60.0366C165.644 60.7326 163.869 61.0805 161.921 61.0805C159.972 61.0805 158.198 60.7326 156.597 60.0366C154.996 59.3406 153.622 58.3664 152.474 57.1137C151.325 55.8611 150.421 54.3474 149.76 52.5728C149.133 50.7985 148.82 48.8323 148.82 46.6751C148.82 44.5177 149.133 42.5693 149.76 40.8294C150.421 39.0548 151.325 37.5411 152.474 36.2885C153.657 35.036 155.049 34.0791 156.649 33.418C158.25 32.722 160.007 32.3741 161.921 32.3741C163.834 32.3741 165.592 32.722 167.192 33.418C168.828 34.0791 170.219 35.036 171.368 36.2885C172.516 37.5411 173.403 39.0548 174.03 40.8294C174.691 42.5693 175.021 44.5177 175.021 46.6751ZM168.549 46.6751C168.549 43.961 167.958 41.8211 166.775 40.2552C165.626 38.6547 164.008 37.8543 161.921 37.8543C159.833 37.8543 158.198 38.6547 157.015 40.2552C155.866 41.8211 155.292 43.961 155.292 46.6751C155.292 49.4239 155.866 51.5986 157.015 53.1992C158.198 54.7999 159.833 55.6001 161.921 55.6001C164.008 55.6001 165.626 54.7999 166.775 53.1992C167.958 51.5986 168.549 49.4239 168.549 46.6751ZM191.027 60.8717C189.148 60.837 187.582 60.6282 186.329 60.2454C185.111 59.8625 184.137 59.3233 183.406 58.6273C182.676 57.8966 182.154 57.0093 181.841 55.9654C181.562 54.8868 181.423 53.6689 181.423 52.3121V20.8915L187.739 19.8477V51.1116C187.739 51.8771 187.791 52.5206 187.895 53.0426C188.034 53.5645 188.26 54.017 188.574 54.3996C188.887 54.7477 189.304 55.0259 189.826 55.2347C190.383 55.4088 191.079 55.5479 191.914 55.6523L191.027 60.8717ZM215.133 46.8317C215.133 44.0132 214.49 41.8211 213.202 40.2552C211.95 38.6894 209.914 37.9065 207.096 37.9065C206.504 37.9065 205.878 37.9414 205.217 38.0109C204.59 38.0458 203.964 38.1502 203.338 38.324V53.9299C203.894 54.3127 204.625 54.6781 205.53 55.026C206.469 55.3391 207.461 55.4957 208.505 55.4957C210.802 55.4957 212.472 54.7128 213.515 53.147C214.594 51.5814 215.133 49.4761 215.133 46.8317ZM221.606 46.7273C221.606 48.8151 221.327 50.7288 220.77 52.4684C220.248 54.2083 219.483 55.7045 218.474 56.9571C217.465 58.2098 216.195 59.184 214.664 59.88C213.168 60.576 211.463 60.9239 209.549 60.9239C208.261 60.9239 207.078 60.7673 206 60.4541C204.921 60.141 204.034 59.7931 203.338 59.4103V70.0054H197.022V33.94C198.31 33.5919 199.893 33.2614 201.772 32.9483C203.651 32.6351 205.634 32.4785 207.722 32.4785C209.879 32.4785 211.811 32.8089 213.515 33.4702C215.221 34.1313 216.665 35.0882 217.848 36.3407C219.065 37.5586 219.988 39.0548 220.614 40.8294C221.275 42.5693 221.606 44.5352 221.606 46.7273ZM234.482 60.3498H228.166V33.0527H234.482V60.3498ZM235.16 25.067C235.16 26.2499 234.778 27.1894 234.012 27.8854C233.247 28.5814 232.342 28.9293 231.298 28.9293C230.219 28.9293 229.297 28.5814 228.532 27.8854C227.766 27.1894 227.383 26.2499 227.383 25.067C227.383 23.8492 227.766 22.8923 228.532 22.1963C229.297 21.5004 230.219 21.1525 231.298 21.1525C232.342 21.1525 233.247 21.5004 234.012 22.1963C234.778 22.8923 235.16 23.8492 235.16 25.067Z" fill="#869AAC"/>
</svg>
